<svg width="1167" height="228" viewBox="0 0 1167 228" fill="none" xmlns="http://www.w3.org/2000/svg">
<path d="M205.55 86.7995H145.46C145.03 81.8295 143.92 77.3195 142.1 73.2695C140.29 69.2195 137.8 65.7195 134.64 62.7795C131.48 59.8295 127.66 57.5595 123.19 55.9595C118.72 54.3595 113.64 53.5595 107.96 53.5595C98.02 53.5595 89.62 55.9795 82.76 60.7995C75.91 65.6295 70.72 72.5595 67.21 81.5695C63.69 90.5895 61.94 101.42 61.94 114.06C61.94 127.41 63.73 138.58 67.32 147.56C70.91 156.55 76.11 163.29 82.93 167.8C89.75 172.31 97.95 174.56 107.54 174.56C113.01 174.56 117.91 173.87 122.24 172.48C126.57 171.1 130.34 169.09 133.53 166.46C136.73 163.83 139.34 160.65 141.36 156.92C143.38 153.19 144.75 148.98 145.46 144.3L205.55 144.73C204.84 153.96 202.25 163.36 197.77 172.91C193.3 182.46 186.96 191.27 178.75 199.33C170.55 207.39 160.41 213.87 148.33 218.77C136.25 223.67 122.23 226.12 106.25 226.12C86.22 226.12 68.27 221.82 52.4 213.23C36.53 204.64 23.99 191.99 14.79 175.3C5.6 158.64 1 138.22 1 114.07C1 89.7795 5.69 69.3095 15.06 52.6495C24.44 35.9995 37.08 23.3995 52.99 14.8395C68.9 6.27951 86.65 1.99951 106.26 1.99951C120.04 1.99951 132.72 3.87951 144.29 7.64951C155.87 11.4195 166.02 16.8995 174.76 24.1095C183.5 31.3195 190.53 40.1795 195.85 50.6895C201.18 61.1995 204.41 73.2395 205.55 86.7995Z" stroke="#F4F4F4" stroke-width="2"/>
<path d="M232.39 223.16V4.97949H291.62V175.439H379.83V223.169H232.39V223.16Z" stroke="#F4F4F4" stroke-width="2"/>
<path d="M460.37 223.16H396.45L468.47 4.97949H549.44L621.46 223.16H557.54L509.8 65.0695H508.09L460.37 223.16Z" stroke="#F4F4F4" stroke-width="2"/>
<path d="M751.42 73.1595C750.85 66.0595 748.21 60.5195 743.48 56.5395C738.76 52.5595 731.6 50.5695 722.01 50.5695C715.9 50.5695 710.91 51.2995 707.04 52.7495C703.17 54.2095 700.31 56.1795 698.46 58.6595C696.61 61.1495 695.65 63.9895 695.58 67.1795C695.44 69.8095 695.92 72.1695 697.02 74.2595C698.12 76.3595 699.88 78.2395 702.29 79.9095C704.7 81.5795 707.79 83.0895 711.56 84.4395C715.32 85.7895 719.8 86.9995 724.98 88.0595L742.88 91.8895C754.95 94.4495 765.29 97.8195 773.88 102.01C782.47 106.2 789.5 111.12 794.97 116.76C800.44 122.41 804.47 128.75 807.06 135.78C809.65 142.81 810.98 150.48 811.06 158.79C810.99 173.14 807.4 185.28 800.3 195.22C793.2 205.17 783.06 212.73 769.88 217.91C756.7 223.09 740.88 225.69 722.42 225.69C703.46 225.69 686.93 222.89 672.83 217.27C658.73 211.66 647.79 203.01 640.02 191.33C632.24 179.65 628.32 164.68 628.25 146.43H684.5C684.85 153.11 686.52 158.72 689.51 163.26C692.49 167.8 696.7 171.25 702.13 173.59C707.56 175.93 714.04 177.11 721.57 177.11C727.89 177.11 733.18 176.33 737.44 174.77C741.7 173.21 744.93 171.04 747.14 168.27C749.34 165.5 750.48 162.34 750.55 158.79C750.48 155.45 749.39 152.52 747.3 150C745.2 147.48 741.78 145.21 737.02 143.18C732.26 141.16 725.83 139.26 717.74 137.48L696.01 132.79C676.69 128.6 661.47 121.59 650.36 111.75C639.24 101.91 633.72 88.4695 633.79 71.4295C633.72 57.5795 637.43 45.4495 644.92 35.0495C652.41 24.6495 662.82 16.5295 676.13 10.7095C689.47 4.90951 704.76 1.99951 722.02 1.99951C739.63 1.99951 754.87 4.94951 767.72 10.8395C780.57 16.7395 790.5 25.0295 797.5 35.7195C804.5 46.4095 808.03 58.8895 808.1 73.1695H751.42V73.1595Z" stroke="#F4F4F4" stroke-width="2"/>
<path d="M951.28 73.1595C950.71 66.0595 948.07 60.5195 943.34 56.5395C938.62 52.5595 931.46 50.5695 921.87 50.5695C915.76 50.5695 910.77 51.2995 906.9 52.7495C903.03 54.2095 900.17 56.1795 898.32 58.6595C896.47 61.1495 895.51 63.9895 895.44 67.1795C895.3 69.8095 895.78 72.1695 896.88 74.2595C897.98 76.3595 899.74 78.2395 902.15 79.9095C904.56 81.5795 907.65 83.0895 911.42 84.4395C915.18 85.7895 919.66 86.9995 924.84 88.0595L942.74 91.8895C954.81 94.4495 965.15 97.8195 973.74 102.01C982.33 106.2 989.36 111.12 994.83 116.76C1000.3 122.41 1004.33 128.75 1006.92 135.78C1009.51 142.81 1010.84 150.48 1010.92 158.79C1010.85 173.14 1007.26 185.28 1000.16 195.22C993.06 205.17 982.92 212.73 969.74 217.91C956.56 223.09 940.74 225.69 922.28 225.69C903.32 225.69 886.79 222.89 872.69 217.27C858.59 211.66 847.65 203.01 839.88 191.33C832.1 179.65 828.18 164.68 828.11 146.43H884.36C884.71 153.11 886.38 158.72 889.37 163.26C892.35 167.8 896.56 171.25 901.99 173.59C907.42 175.93 913.9 177.11 921.43 177.11C927.75 177.11 933.04 176.33 937.3 174.77C941.56 173.21 944.79 171.04 947 168.27C949.2 165.5 950.34 162.34 950.41 158.79C950.34 155.45 949.25 152.52 947.16 150C945.06 147.48 941.64 145.21 936.88 143.18C932.12 141.16 925.69 139.26 917.6 137.48L895.87 132.79C876.55 128.6 861.33 121.59 850.22 111.75C839.1 101.91 833.58 88.4695 833.65 71.4295C833.58 57.5795 837.29 45.4495 844.78 35.0495C852.27 24.6495 862.68 16.5295 875.99 10.7095C889.33 4.90951 904.62 1.99951 921.87 1.99951C939.48 1.99951 954.72 4.94951 967.57 10.8395C980.42 16.7395 990.35 25.0295 997.35 35.7195C1004.35 46.4095 1007.88 58.8895 1007.95 73.1695H951.28V73.1595Z" stroke="#F4F4F4" stroke-width="2"/>
<path d="M1033.52 223.16V4.97949H1190.76V52.7095H1092.75V90.2095H1182.66V137.939H1092.75V175.439H1190.33V223.169H1033.52V223.16Z" stroke="#F4F4F4" stroke-width="2"/>
</svg>
